<?xml version="1.0" encoding="UTF-8" standalone="no"?>
<!DOCTYPE svg PUBLIC "-//W3C//DTD SVG 1.1//EN" "http://www.w3.org/Graphics/SVG/1.1/DTD/svg11.dtd">
<svg width="100%" height="100%" viewBox="0 0 1024 1024" version="1.1" xmlns="http://www.w3.org/2000/svg" xmlns:xlink="http://www.w3.org/1999/xlink" xml:space="preserve" xmlns:serif="http://www.serif.com/" style="fill-rule:evenodd;clip-rule:evenodd;stroke-linejoin:round;stroke-miterlimit:2;">
    <g transform="matrix(1.147527,0,0,1.147527,-89.102473,0)">
        <circle cx="523.824" cy="446.177" r="446.177" style="fill:white;fill-opacity:0;"/>
        <path d="M139.241,672.388C106.989,617.711 86.062,555.571 79.7,489.206C81.687,489.007 83.465,490.455 83.672,492.443C90.252,555.667 110.167,614.952 140.551,667.434C141.553,669.164 140.966,671.38 139.241,672.388ZM139.241,219.966C140.966,220.974 141.553,223.19 140.552,224.92C110.167,277.401 90.252,336.687 83.672,399.911C83.465,401.899 81.687,403.347 79.7,403.148C86.062,336.783 106.989,274.643 139.241,219.966ZM345.66,37.047C346.467,38.874 345.644,41.014 343.818,41.829C286.851,67.254 236.228,104.369 195.006,150.117C193.667,151.602 191.377,151.724 189.888,150.393C232.673,102.134 285.748,63.2 345.66,37.047ZM620.152,10.444C619.73,12.396 617.806,13.643 615.85,13.229C586.161,6.94 555.376,3.631 523.824,3.631C492.273,3.631 461.488,6.94 431.799,13.229C429.843,13.643 427.919,12.396 427.497,10.444C458.523,3.605 490.756,0 523.824,0C556.893,0 589.126,3.605 620.152,10.444ZM857.76,150.393C856.271,151.724 853.982,151.602 852.643,150.117C811.42,104.369 760.798,67.254 703.831,41.829C702.005,41.014 701.182,38.874 701.989,37.047C761.901,63.2 814.976,102.133 857.76,150.393ZM967.949,403.148C965.962,403.347 964.184,401.899 963.977,399.911C957.397,336.687 937.482,277.402 907.097,224.92C906.096,223.19 906.683,220.974 908.408,219.966C940.66,274.643 961.587,336.783 967.949,403.148ZM908.408,672.388C906.683,671.38 906.096,669.164 907.097,667.434C937.482,614.953 957.397,555.667 963.977,492.443C964.184,490.455 965.962,489.007 967.949,489.206C961.587,555.571 940.66,617.711 908.408,672.388ZM701.989,855.307C701.182,853.48 702.005,851.34 703.831,850.525C760.798,825.1 811.421,787.985 852.643,742.237C853.982,740.752 856.272,740.63 857.761,741.961C814.976,790.221 761.901,829.154 701.989,855.307ZM427.499,881.911C427.92,879.958 429.845,878.711 431.8,879.125C461.489,885.415 492.274,888.723 523.824,888.723C555.376,888.723 586.161,885.415 615.85,879.125C617.806,878.711 619.73,879.958 620.152,881.91C589.126,888.749 556.893,892.354 523.824,892.354C490.757,892.354 458.524,888.749 427.499,881.911ZM189.888,741.961C191.378,740.63 193.667,740.752 195.006,742.238C236.229,787.985 286.851,825.1 343.818,850.525C345.644,851.34 346.467,853.48 345.66,855.307C285.748,829.154 232.673,790.221 189.888,741.961Z" style="fill:white;"/>
    </g>
</svg>
